 <svg  version="1.0" xmlns="http://www.w3.org/2000/svg"  width="300.000000pt" height="278.000000pt" viewBox="0 0 300.000000 278.000000"  preserveAspectRatio="xMidYMid meet">  <g transform="translate(0.000000,278.000000) scale(0.100000,-0.100000)" fill="#ffffff" stroke="none"> <path d="M62 1413 l3 -1318 355 0 355 0 3 1318 2 1317 -360 0 -360 0 2 -1317z"/> <path d="M955 2718 c-2 -7 -3 -600 -2 -1318 l2 -1305 948 -3 c525 -1 947 2 947 7 0 4 -16 29 -35 54 -19 25 -35 48 -35 51 0 3 -8 15 -17 25 -24 26 -29 32 -103 135 -36 49 -78 105 -95 126 -16 21 -39 50 -50 65 -29 40 -213 288 -223 300 -35 44 -135 182 -139 192 -4 11 40 75 90 128 45 49 127 199 164 300 41 115 56 310 32 441 -34 193 -158 434 -284 553 -51 47 -203 158 -223 162 -18 4 -87 31 -124 50 -10 5 -30 9 -46 9 -15 0 -32 4 -38 9 -17 17 -116 23 -442 27 -257 4 -323 2 -327 -8z"/> </g> </svg> 